<?xml version="1.0" encoding="utf-8"?>
<!-- Generator: Adobe Illustrator 18.0.0, SVG Export Plug-In . SVG Version: 6.00 Build 0)  -->
<!DOCTYPE svg PUBLIC "-//W3C//DTD SVG 1.1//EN" "http://www.w3.org/Graphics/SVG/1.1/DTD/svg11.dtd">
<svg version="1.1" xmlns="http://www.w3.org/2000/svg" xmlns:xlink="http://www.w3.org/1999/xlink" x="0px" y="0px"
	 viewBox="0 0 288.9 229.6" enable-background="new 0 0 288.9 229.6" xml:space="preserve">
<g id="Layer_2">
</g>
<g id="Layer_1">
	<path d="M285.4,107.8C266.4,88.8,242.6,58,224,1c-8.8,24.7-46,42.9-51.2,54.7c-14.1-1.8-20.8-2.6-27.8-2.5
		c-7-0.1-13.7,0.7-27.8,2.5c-5.3-11.7-42.4-30-51.2-54.7C47.3,58,23.5,88.8,4.5,107.8c-8.8,8.8,1.3,35.6,6.8,46.9
		c7.4,14.9,21.4,34.8,40.5,51.2c17.7,15.2,48.2,23.7,92.1,23.7c0.3,0,0.7,0,1,0c0.3,0,0.7,0,1,0c43.9,0,74.4-8.4,92.1-23.7
		c19.1-16.4,33.1-36.3,40.5-51.2C284.1,143.5,294.2,116.6,285.4,107.8z M96.6,189.9c-9.4-0.1-19.6-3.8-26.8-7.9
		c-8.2-4.6-12.8-10.7-14.5-16.8c-1-3.6-1.2-8.4-1-11.9c1.4-27.2,12.5-31.8,24.3-28.1c8.1,2.5,22,17.7,27,24.5
		c5.8,7.8,15.6,25.4,15.6,25.4S115.3,190.1,96.6,189.9z M234.6,165.2c-1.7,6.1-6.3,12.1-14.5,16.8c-7.3,4.1-17.4,7.8-26.8,7.9
		c-18.7,0.3-24.5-14.7-24.5-14.7s9.9-17.6,15.6-25.4c5-6.8,18.9-22,27-24.5c11.7-3.6,22.9,0.9,24.3,28.1
		C235.8,156.8,235.6,161.6,234.6,165.2z"/>
</g>
</svg>
