<?xml version="1.0" encoding="utf-8"?>
<!-- Generator: Adobe Illustrator 18.1.1, SVG Export Plug-In . SVG Version: 6.00 Build 0)  -->
<svg version="1.1" id="Layer_1" xmlns="http://www.w3.org/2000/svg" xmlns:xlink="http://www.w3.org/1999/xlink" x="0px" y="0px"
	 viewBox="0 0 960 560" enable-background="new 0 0 960 560" xml:space="preserve">
<g>
</g>
<g>
	<path d="M457,157c0-3.3-2.7-6-6-6h-76c-3.3,0-6,2.7-6,6v50c0,3.3,2.7,6,6,6h76c3.3,0,6-2.7,6-6V157z M392.6,161.4
		c4.3,0,7.7,3.5,7.7,7.7c0,4.3-3.5,7.7-7.7,7.7s-7.7-3.5-7.7-7.7C384.9,164.9,388.4,161.4,392.6,161.4z M441,203h-56v-8.2l12.8-12.9
		l6.4,6.4l20.3-20.6l16.5,16.7V203z"/>
</g>
</svg>
